# xmcd
#
# Track frame offsets:
#	150
#	20841
#	40369
#	62251
#	84906
#	97052
#	114615
#	133014
#	153021
#	173025
#	192551
#	209903
#
# Disc length: 3042 seconds
#
# Revision: 0
# Processed by: cddbd v1.5.1PL0 Copyright (c) Steve Scherf et al.
# Submitted via: dBpowerAMP V4.0
#
DISCID=a60be00c
DTITLE=Mark S. Moody - Glimpses
DYEAR=1995
DGENRE=Country
TTITLE0=Tu, Solo Tu
TTITLE1=It'll Be Better In The Mornin'
TTITLE2=Pull The Cork
TTITLE3=Without You
TTITLE4=Too Much Talk
TTITLE5=Moody's Blue
TTITLE6=Glimpses of Heaven
TTITLE7=In Previous Relationships
TTITLE8=Wrong Woman Blues
TTITLE9=Hony Tonkin' Restless Way of Life
TTITLE10=Not Yet
TTITLE11=Organized Slime Blues
EXTD=
EXTT0=
EXTT1=
EXTT2=
EXTT3=
EXTT4=
EXTT5=
EXTT6=
EXTT7=
EXTT8=
EXTT9=
EXTT10=
EXTT11=
PLAYORDER=
